<?xml version="1.0" encoding="UTF-8" standalone="no"?>
<!DOCTYPE svg PUBLIC "-//W3C//DTD SVG 1.1//EN" "http://www.w3.org/Graphics/SVG/1.1/DTD/svg11.dtd">
<svg width="100%" height="100%" viewBox="0 0 5906 4170" version="1.1" xmlns="http://www.w3.org/2000/svg" xmlns:xlink="http://www.w3.org/1999/xlink" xml:space="preserve" xmlns:serif="http://www.serif.com/" style="fill-rule:evenodd;clip-rule:evenodd;stroke-linecap:round;stroke-linejoin:round;stroke-miterlimit:1.5;">
    <g transform="matrix(1.00176,0,0,0.999359,47.6315,-55.0894)">
        <rect x="70.355" y="586.962" width="4951.91" height="3510.12" style="fill:rgb(235,235,235);stroke:black;stroke-width:1.63px;"/>
    </g>
    <g transform="matrix(0.996054,0,0,0.998696,20.3865,8.10638)">
        <rect x="5166.67" y="524.073" width="652.18" height="3512.45" style="fill:rgb(235,235,235);stroke:black;stroke-width:2.19px;"/>
    </g>
    <rect x="5210.93" y="3547.39" width="559.011" height="421.587" style="fill:rgb(235,235,235);fill-opacity:0;stroke:black;stroke-width:4.17px;"/>
    <rect x="5210.93" y="3547.39" width="559.011" height="421.587" style="fill:rgb(242,13,13);stroke:black;stroke-width:4.17px;"/>
    <g transform="matrix(0.803555,0.59523,-0.59523,0.803555,5476.46,3750.03)">
        <path d="M78.263,0C78.263,-43.223 43.223,-78.263 -0,-78.263C-41.165,-78.263 -74.536,-44.892 -74.536,-3.727C-74.536,35.272 -42.921,66.886 -3.923,66.886C32.909,66.886 62.767,37.028 62.767,0.196C62.767,-34.469 34.665,-62.571 -0,-62.571C-32.499,-62.571 -58.844,-36.225 -58.844,-3.727C-58.844,26.605 -34.255,51.194 -3.923,51.194C24.243,51.194 47.075,28.362 47.075,0.196C47.075,-25.803 25.999,-46.879 -0,-46.879C-23.832,-46.879 -43.152,-27.559 -43.152,-3.727C-43.152,17.939 -25.589,35.503 -3.923,35.503C15.576,35.503 31.384,19.695 31.383,0.196C31.383,-17.136 17.333,-31.187 -0,-31.187C-15.166,-31.187 -27.461,-18.893 -27.461,-3.727C-27.461,9.273 -16.922,19.811 -3.923,19.811C6.91,19.811 15.692,11.029 15.692,0.196C15.692,-8.47 8.666,-15.496 -0,-15.496C-6.5,-15.496 -11.769,-10.227 -11.769,-3.727C-11.769,0.606 -8.256,4.119 -3.923,4.119C-1.756,4.119 0,2.363 -0,0.196" style="fill:none;stroke:black;stroke-width:2.19px;"/>
    </g>
    <g transform="matrix(1,0,0,1,0,-480)">
        <rect x="5210.93" y="3547.39" width="559.011" height="421.587" style="fill:rgb(235,235,235);fill-opacity:0;stroke:black;stroke-width:4.17px;"/>
    </g>
    <g transform="matrix(1,0,0,1,0,-480)">
        <rect x="5210.93" y="3547.39" width="559.011" height="421.587" style="fill:rgb(242,94,13);stroke:black;stroke-width:4.17px;"/>
    </g>
    <g transform="matrix(0.803555,0.59523,-0.59523,0.803555,5476.46,3270.03)">
        <path d="M78.263,0C78.263,-43.223 43.223,-78.263 -0,-78.263C-41.165,-78.263 -74.536,-44.892 -74.536,-3.727C-74.536,35.272 -42.921,66.886 -3.923,66.886C32.909,66.886 62.767,37.028 62.767,0.196C62.767,-34.469 34.665,-62.571 -0,-62.571C-32.499,-62.571 -58.844,-36.225 -58.844,-3.727C-58.844,26.605 -34.255,51.194 -3.923,51.194C24.243,51.194 47.075,28.362 47.075,0.196C47.075,-25.803 25.999,-46.879 -0,-46.879C-23.832,-46.879 -43.152,-27.559 -43.152,-3.727C-43.152,17.939 -25.589,35.503 -3.923,35.503C15.576,35.503 31.384,19.695 31.383,0.196C31.383,-17.136 17.333,-31.187 -0,-31.187C-15.166,-31.187 -27.461,-18.893 -27.461,-3.727C-27.461,9.273 -16.922,19.811 -3.923,19.811C6.91,19.811 15.692,11.029 15.692,0.196C15.692,-8.47 8.666,-15.496 -0,-15.496C-6.5,-15.496 -11.769,-10.227 -11.769,-3.727C-11.769,0.606 -8.256,4.119 -3.923,4.119C-1.756,4.119 0,2.363 -0,0.196" style="fill:none;stroke:black;stroke-width:2.19px;"/>
    </g>
    <g transform="matrix(1,0,0,1,0,-970)">
        <rect x="5210.93" y="3547.39" width="559.011" height="421.587" style="fill:rgb(235,235,235);fill-opacity:0;stroke:black;stroke-width:4.17px;"/>
    </g>
    <g transform="matrix(1,0,0,1,0,-970)">
        <rect x="5210.93" y="3547.39" width="559.011" height="421.587" style="fill:rgb(242,175,13);stroke:black;stroke-width:4.17px;"/>
    </g>
    <g transform="matrix(0.803555,0.59523,-0.59523,0.803555,5476.46,2780.03)">
        <path d="M78.263,0C78.263,-43.223 43.223,-78.263 -0,-78.263C-41.165,-78.263 -74.536,-44.892 -74.536,-3.727C-74.536,35.272 -42.921,66.886 -3.923,66.886C32.909,66.886 62.767,37.028 62.767,0.196C62.767,-34.469 34.665,-62.571 -0,-62.571C-32.499,-62.571 -58.844,-36.225 -58.844,-3.727C-58.844,26.605 -34.255,51.194 -3.923,51.194C24.243,51.194 47.075,28.362 47.075,0.196C47.075,-25.803 25.999,-46.879 -0,-46.879C-23.832,-46.879 -43.152,-27.559 -43.152,-3.727C-43.152,17.939 -25.589,35.503 -3.923,35.503C15.576,35.503 31.384,19.695 31.383,0.196C31.383,-17.136 17.333,-31.187 -0,-31.187C-15.166,-31.187 -27.461,-18.893 -27.461,-3.727C-27.461,9.273 -16.922,19.811 -3.923,19.811C6.91,19.811 15.692,11.029 15.692,0.196C15.692,-8.47 8.666,-15.496 -0,-15.496C-6.5,-15.496 -11.769,-10.227 -11.769,-3.727C-11.769,0.606 -8.256,4.119 -3.923,4.119C-1.756,4.119 0,2.363 -0,0.196" style="fill:none;stroke:black;stroke-width:2.19px;"/>
    </g>
    <g transform="matrix(1,0,0,1,0,-1460)">
        <rect x="5210.93" y="3547.39" width="559.011" height="421.587" style="fill:rgb(235,235,235);fill-opacity:0;stroke:black;stroke-width:4.17px;"/>
    </g>
    <g transform="matrix(1,0,0,1,0,-1460)">
        <rect x="5210.93" y="3547.39" width="559.011" height="421.587" style="fill:rgb(148,242,13);stroke:black;stroke-width:4.17px;"/>
    </g>
    <g transform="matrix(0.803555,0.59523,-0.59523,0.803555,5476.46,2290.03)">
        <path d="M78.263,0C78.263,-43.223 43.223,-78.263 -0,-78.263C-41.165,-78.263 -74.536,-44.892 -74.536,-3.727C-74.536,35.272 -42.921,66.886 -3.923,66.886C32.909,66.886 62.767,37.028 62.767,0.196C62.767,-34.469 34.665,-62.571 -0,-62.571C-32.499,-62.571 -58.844,-36.225 -58.844,-3.727C-58.844,26.605 -34.255,51.194 -3.923,51.194C24.243,51.194 47.075,28.362 47.075,0.196C47.075,-25.803 25.999,-46.879 -0,-46.879C-23.832,-46.879 -43.152,-27.559 -43.152,-3.727C-43.152,17.939 -25.589,35.503 -3.923,35.503C15.576,35.503 31.384,19.695 31.383,0.196C31.383,-17.136 17.333,-31.187 -0,-31.187C-15.166,-31.187 -27.461,-18.893 -27.461,-3.727C-27.461,9.273 -16.922,19.811 -3.923,19.811C6.91,19.811 15.692,11.029 15.692,0.196C15.692,-8.47 8.666,-15.496 -0,-15.496C-6.5,-15.496 -11.769,-10.227 -11.769,-3.727C-11.769,0.606 -8.256,4.119 -3.923,4.119C-1.756,4.119 0,2.363 -0,0.196" style="fill:none;stroke:black;stroke-width:2.19px;"/>
    </g>
    <g transform="matrix(1,0,0,1,0,-1950)">
        <rect x="5210.93" y="3547.39" width="559.011" height="421.587" style="fill:rgb(235,235,235);fill-opacity:0;stroke:black;stroke-width:4.17px;"/>
    </g>
    <g transform="matrix(1,0,0,1,0,-1950)">
        <rect x="5210.93" y="3547.39" width="559.011" height="421.587" style="fill:rgb(13,40,242);stroke:black;stroke-width:4.17px;"/>
    </g>
    <g transform="matrix(0.803555,0.59523,-0.59523,0.803555,5476.46,1800.03)">
        <path d="M78.263,0C78.263,-43.223 43.223,-78.263 -0,-78.263C-41.165,-78.263 -74.536,-44.892 -74.536,-3.727C-74.536,35.272 -42.921,66.886 -3.923,66.886C32.909,66.886 62.767,37.028 62.767,0.196C62.767,-34.469 34.665,-62.571 -0,-62.571C-32.499,-62.571 -58.844,-36.225 -58.844,-3.727C-58.844,26.605 -34.255,51.194 -3.923,51.194C24.243,51.194 47.075,28.362 47.075,0.196C47.075,-25.803 25.999,-46.879 -0,-46.879C-23.832,-46.879 -43.152,-27.559 -43.152,-3.727C-43.152,17.939 -25.589,35.503 -3.923,35.503C15.576,35.503 31.384,19.695 31.383,0.196C31.383,-17.136 17.333,-31.187 -0,-31.187C-15.166,-31.187 -27.461,-18.893 -27.461,-3.727C-27.461,9.273 -16.922,19.811 -3.923,19.811C6.91,19.811 15.692,11.029 15.692,0.196C15.692,-8.47 8.666,-15.496 -0,-15.496C-6.5,-15.496 -11.769,-10.227 -11.769,-3.727C-11.769,0.606 -8.256,4.119 -3.923,4.119C-1.756,4.119 0,2.363 -0,0.196" style="fill:none;stroke:black;stroke-width:2.19px;"/>
    </g>
    <g transform="matrix(1,0,0,1,0,-2440)">
        <rect x="5210.93" y="3547.39" width="559.011" height="421.587" style="fill:rgb(235,235,235);fill-opacity:0;stroke:black;stroke-width:4.17px;"/>
    </g>
    <g transform="matrix(1,0,0,1,0,-2440)">
        <rect x="5210.93" y="3547.39" width="559.011" height="421.587" style="fill:rgb(147,13,242);stroke:black;stroke-width:4.17px;"/>
    </g>
    <g transform="matrix(0.803555,0.59523,-0.59523,0.803555,5476.46,1310.03)">
        <path d="M78.263,0C78.263,-43.223 43.223,-78.263 -0,-78.263C-41.165,-78.263 -74.536,-44.892 -74.536,-3.727C-74.536,35.272 -42.921,66.886 -3.923,66.886C32.909,66.886 62.767,37.028 62.767,0.196C62.767,-34.469 34.665,-62.571 -0,-62.571C-32.499,-62.571 -58.844,-36.225 -58.844,-3.727C-58.844,26.605 -34.255,51.194 -3.923,51.194C24.243,51.194 47.075,28.362 47.075,0.196C47.075,-25.803 25.999,-46.879 -0,-46.879C-23.832,-46.879 -43.152,-27.559 -43.152,-3.727C-43.152,17.939 -25.589,35.503 -3.923,35.503C15.576,35.503 31.384,19.695 31.383,0.196C31.383,-17.136 17.333,-31.187 -0,-31.187C-15.166,-31.187 -27.461,-18.893 -27.461,-3.727C-27.461,9.273 -16.922,19.811 -3.923,19.811C6.91,19.811 15.692,11.029 15.692,0.196C15.692,-8.47 8.666,-15.496 -0,-15.496C-6.5,-15.496 -11.769,-10.227 -11.769,-3.727C-11.769,0.606 -8.256,4.119 -3.923,4.119C-1.756,4.119 0,2.363 -0,0.196" style="fill:none;stroke:black;stroke-width:2.19px;"/>
    </g>
    <g transform="matrix(1,0,0,1,0,-2930)">
        <rect x="5210.93" y="3547.39" width="559.011" height="421.587" style="fill:rgb(235,235,235);fill-opacity:0;stroke:black;stroke-width:4.17px;"/>
    </g>
    <g transform="matrix(1,0,0,1,0,-2930)">
        <rect x="5210.93" y="3547.39" width="559.011" height="421.587" style="fill:rgb(242,13,94);stroke:black;stroke-width:4.17px;"/>
    </g>
    <g transform="matrix(0.803555,0.59523,-0.59523,0.803555,5476.46,820.033)">
        <path d="M78.263,0C78.263,-43.223 43.223,-78.263 -0,-78.263C-41.165,-78.263 -74.536,-44.892 -74.536,-3.727C-74.536,35.272 -42.921,66.886 -3.923,66.886C32.909,66.886 62.767,37.028 62.767,0.196C62.767,-34.469 34.665,-62.571 -0,-62.571C-32.499,-62.571 -58.844,-36.225 -58.844,-3.727C-58.844,26.605 -34.255,51.194 -3.923,51.194C24.243,51.194 47.075,28.362 47.075,0.196C47.075,-25.803 25.999,-46.879 -0,-46.879C-23.832,-46.879 -43.152,-27.559 -43.152,-3.727C-43.152,17.939 -25.589,35.503 -3.923,35.503C15.576,35.503 31.384,19.695 31.383,0.196C31.383,-17.136 17.333,-31.187 -0,-31.187C-15.166,-31.187 -27.461,-18.893 -27.461,-3.727C-27.461,9.273 -16.922,19.811 -3.923,19.811C6.91,19.811 15.692,11.029 15.692,0.196C15.692,-8.47 8.666,-15.496 -0,-15.496C-6.5,-15.496 -11.769,-10.227 -11.769,-3.727C-11.769,0.606 -8.256,4.119 -3.923,4.119C-1.756,4.119 0,2.363 -0,0.196" style="fill:none;stroke:black;stroke-width:2.19px;"/>
    </g>
</svg>
